<svg xmlns="http://www.w3.org/2000/svg" width="574.404" height="130.073" viewBox="0 0 574.404 130.073">
  <g id="img_logo_horizontal" transform="translate(-156.914 -234.152)">
    <g id="Group_3484" data-name="Group 3484">
      <path id="Union_9" data-name="Union 9" d="M-3534.79,3777.732a15.651,15.651,0,0,0,15.634-15.634,15.652,15.652,0,0,0-15.634-15.635v-13.025a28.691,28.691,0,0,1,28.659,28.659,28.692,28.692,0,0,1-28.659,28.66Zm-59.344,13.025v-13.025h59.344v13.025Zm0-44.293v-13.025h59.344v13.025Z" transform="translate(3823.187 -3498.787)" fill="#f8b616" stroke="rgba(0,0,0,0)" stroke-miterlimit="10" stroke-width="1"/>
      <path id="Union_4" data-name="Union 4" d="M-3524.041,3837.015a4.89,4.89,0,0,0,4.884-4.885,4.89,4.89,0,0,0-4.884-4.883v-13.025a17.93,17.93,0,0,1,17.91,17.908,17.93,17.93,0,0,1-17.91,17.91Zm-10.749,13.025v-13.025h10.749v13.025Zm-29.635,0h-11.8a17.93,17.93,0,0,1-17.907-17.909,17.93,17.93,0,0,1,17.909-17.91v13.025a4.891,4.891,0,0,0-4.883,4.885,4.889,4.889,0,0,0,4.883,4.884h11.8a4.891,4.891,0,0,0,4.884-4.884h0v-4.884h-16.683V3814.22h16.683v-80.782h13.025v80.782h22.476v13.026h-22.476v4.884h0c0,.06,0,.12,0,.18v1.532h-.08a17.942,17.942,0,0,1-16.865,16.171v.026Z" transform="translate(3823.188 -3490.335)" fill="#f8b616" stroke="rgba(0,0,0,0)" stroke-miterlimit="10" stroke-width="1"/>
      <path id="Union_3" data-name="Union 3" d="M-3594.134,3751.347a17.93,17.93,0,0,1,17.91-17.909h40.7v13.025h-40.7a4.89,4.89,0,0,0-4.884,4.883,4.89,4.89,0,0,0,4.884,4.885h40.7v13.025h-40.7A17.93,17.93,0,0,1-3594.134,3751.347Z" transform="translate(3751.549 -3409.553)" fill="#f8b616" stroke="rgba(0,0,0,0)" stroke-miterlimit="10" stroke-width="1"/>
      <path id="Union_5" data-name="Union 5" d="M-3441,3769.259h-135.218a17.931,17.931,0,0,1-17.911-17.91,17.931,17.931,0,0,1,17.911-17.91v13.026a4.892,4.892,0,0,0-4.886,4.884,4.892,4.892,0,0,0,4.886,4.884H-3441a6.513,6.513,0,0,1,6.512,6.513,6.513,6.513,0,0,1-6.512,6.513h0Zm-135.218-22.795v-13.025h40.7v13.025Z" transform="translate(3751.548 -3454.493)" fill="#f8b616" stroke="rgba(0,0,0,0)" stroke-miterlimit="10" stroke-width="1"/>
      <path id="Union_10" data-name="Union 10" d="M-3594.134,3739.95a6.513,6.513,0,0,1,6.512-6.512h52.1v13.025h-52.1A6.513,6.513,0,0,1-3594.134,3739.95Z" transform="translate(3751.549 -3498.786)" fill="#f8b616" stroke="rgba(0,0,0,0)" stroke-miterlimit="10" stroke-width="1"/>
      <path id="Union_8" data-name="Union 8" d="M-3463.152,3733.438a6.514,6.514,0,0,1,6.513,6.513,6.513,6.513,0,0,1-6.513,6.513Zm-124.47,13.026a6.513,6.513,0,0,1-6.512-6.513,6.514,6.514,0,0,1,6.512-6.513h124.47v13.025Z" transform="translate(3751.549 -3476.64)" fill="#f8b616" stroke="rgba(0,0,0,0)" stroke-miterlimit="10" stroke-width="1"/>
    </g>
    <g id="Group_3486" data-name="Group 3486">
      <g id="Group_3485" data-name="Group 3485">
        <rect id="Rectangle_2073" data-name="Rectangle 2073" width="43.182" height="4.318" transform="translate(357.793 235.217)" fill="#727171"/>
        <path id="Path_138" data-name="Path 138" d="M595.812,248.2l3.053-3.053-3.635-3.635,3.635-3.635-3.053-3.053-3.635,3.635-3.635-3.635-3.054,3.053,3.635,3.635-3.635,3.635,3.054,3.053,3.635-3.635Z" fill="#727171"/>
        <path id="Path_139" data-name="Path 139" d="M588.542,261.58l3.635-3.635,3.635,3.635,3.053-3.053-3.635-3.635,3.635-3.635-3.053-3.054-3.635,3.635-3.635-3.635-3.054,3.054,3.635,3.635-3.635,3.635Z" fill="#727171"/>
        <rect id="Rectangle_2074" data-name="Rectangle 2074" width="69.091" height="4.318" transform="translate(344.839 246.737)" fill="#727171"/>
        <path id="Path_140" data-name="Path 140" d="M518.987,274.1v-4.318H486.6v-8.345h20.629v-4.318h0v-6.631h0v-4.319h0v-6.63h0v-4.318H461.653v26.215h20.629v8.345H449.895V274.1h22.092l-23.094,23.041h5.842L477.829,274.1h4.453v23.041H486.6V274.1h4.452l23.094,23.041h5.842L496.894,274.1ZM502.91,257.115H486.6v-6.631h16.31Zm0-10.95H486.6v-6.63h16.31Zm-36.939-6.63h16.311v6.63H465.971Zm0,17.58v-6.631h16.311v6.631Z" fill="#727171"/>
        <rect id="Rectangle_2075" data-name="Rectangle 2075" width="43.182" height="4.318" transform="translate(357.793 258.258)" fill="#727171"/>
        <rect id="Rectangle_2076" data-name="Rectangle 2076" width="43.182" height="4.318" transform="translate(357.793 269.778)" fill="#727171"/>
        <path id="Path_141" data-name="Path 141" d="M365.713,281.3a7.919,7.919,0,1,0,0,15.839h35.262v-4.318H365.713a3.6,3.6,0,1,1,0-7.2h35.262V281.3Z" fill="#727171"/>
        <path id="Path_142" data-name="Path 142" d="M618.877,263.208V235.217h-14.6v4.318h10.281v5.2H604.278v4.318h10.281v5.2H604.278v4.318h10.281v4.631H570.32v-4.631H580.6v-4.318H570.32v-5.2H580.6v-4.318H570.32v-5.2H580.6v-4.318H566v27.991h-1.786a7.919,7.919,0,1,0,0,15.838h0v-4.318h0a3.6,3.6,0,0,1,0-7.2h54.651v-3.111h.01v3.11a3.6,3.6,0,1,1,0,7.2v4.318a7.919,7.919,0,1,0,0-15.838Z" fill="#727171"/>
        <path id="Path_143" data-name="Path 143" d="M598.865,279.22a7.826,7.826,0,0,0-.9-3.6h6.317V271.3H580.6v4.318h10.343a3.6,3.6,0,0,1,0,7.2h-26.73v4.318h26.73a3.6,3.6,0,0,1,0,7.2h-10.34v4.318h10.342a7.919,7.919,0,0,0,7.917-7.919,7.826,7.826,0,0,0-.9-3.6h20.907v-4.318H597.961A7.826,7.826,0,0,0,598.865,279.22Z" fill="#727171"/>
        <path id="Path_144" data-name="Path 144" d="M688.7,259.845h0a3.6,3.6,0,0,1-3.6,3.6v4.318a7.919,7.919,0,0,0,7.919-7.92V235.217H666.672v4.318H688.7v5.2H666.672v4.318H688.7v5.2H666.672v4.318H688.7Z" fill="#727171"/>
        <path id="Path_145" data-name="Path 145" d="M725.961,259.845h0a3.6,3.6,0,0,1-3.6,3.6v4.318a7.92,7.92,0,0,0,7.919-7.92V235.217H703.937v4.318h22.024v5.2H703.937v4.318h22.024v5.2H703.937v4.318h22.024Z" fill="#727171"/>
        <path id="Path_146" data-name="Path 146" d="M721.264,292.819h0v-6.632h0v-4.318h0v-6.63h0V270.92H701.531a7.826,7.826,0,0,0,.9-3.6V263.8h-4.318v3.514a3.6,3.6,0,0,1-3.6,3.6H675.688v26.216h45.576Zm-41.258-17.58h36.939v6.63H680.006Zm0,10.948h36.939v6.632H680.006Z" fill="#727171"/>
        <path id="Path_147" data-name="Path 147" d="M369.05,347.671l-9.859-13.617-.113-.158h-4.627l12.793,16.87v12.7h3.627v-12.7l12.793-16.87h-4.507Z" fill="#727171"/>
        <path id="Path_148" data-name="Path 148" d="M511.691,359.011,492.1,333.9h-4.229v29.569h3.549V338.358l19.3,24.959.115.148h4.407V333.9h-3.549Z" fill="#727171"/>
        <path id="Path_149" data-name="Path 149" d="M652.538,351.961c0,3.006-.746,5.233-2.216,6.618s-3.855,2.1-7.062,2.1-5.556-.7-7.022-2.088-2.2-3.608-2.2-6.627V333.895h-3.685v18.69c0,3.783,1.118,6.7,3.321,8.679s5.417,2.961,9.584,2.961c4.128,0,7.349-1,9.573-2.969s3.371-4.853,3.371-8.535V333.895h-3.666Z" fill="#727171"/>
        <path id="Path_150" data-name="Path 150" d="M727.155,337.3c-2.764-2.762-6.589-4.162-11.372-4.162s-8.622,1.4-11.371,4.162-4.143,6.6-4.143,11.392,1.394,8.61,4.143,11.371,6.574,4.164,11.371,4.164,8.61-1.4,11.372-4.164,4.163-6.588,4.163-11.371S729.918,340.062,727.155,337.3Zm.439,11.392c0,3.734-1.054,6.7-3.133,8.807s-5,3.179-8.678,3.179-6.619-1.07-8.7-3.179-3.133-5.072-3.133-8.807,1.054-6.715,3.133-8.817,5-3.169,8.7-3.169,6.6,1.066,8.678,3.169S727.594,344.944,727.594,348.69Z" fill="#727171"/>
        <path id="Path_151" data-name="Path 151" d="M434.527,333.9h-3.8l-13.635,29.569h3.8l4.174-9.125,7.538-16.733,6.238,13.95,5.418,11.908H448l-13.372-29.346Z" fill="#727171"/>
        <path id="Path_152" data-name="Path 152" d="M574.244,351.058h8.84a11.2,11.2,0,0,1-2.864,6.412,10.858,10.858,0,0,1-7.692,3.179,10.992,10.992,0,0,1-8.046-3.206,12.166,12.166,0,0,1-3.107-8.753c0-3.709,1.048-6.659,3.115-8.77a11.453,11.453,0,0,1,8.54-3.177,11.244,11.244,0,0,1,6.586,1.742,7.745,7.745,0,0,1,3.089,5.038l.061.309h3.771l-.04-.418a10.339,10.339,0,0,0-4.11-7.473,14.665,14.665,0,0,0-9.183-2.805c-4.795,0-8.621,1.4-11.371,4.162s-4.144,6.6-4.144,11.392c0,4.7,1.387,8.508,4.122,11.309a13.071,13.071,0,0,0,2.573,2.054,13.694,13.694,0,0,0,3.034,1.372,15.368,15.368,0,0,0,1.679.426c.291.059.585.108.879.15a18.766,18.766,0,0,0,2.693.208,13.287,13.287,0,0,0,1.547-.086c.139-.015.278-.034.417-.054l.159-.022a15.659,15.659,0,0,0,3.3-.857,13.425,13.425,0,0,0,2.879-1.53,13.764,13.764,0,0,0,1.92-1.634,5.643,5.643,0,0,0,.41-.491c.106-.137.215-.277.375-.459a1.624,1.624,0,0,0,.083-.141,15.86,15.86,0,0,0,3.224-9.151v-2H574.244Z" fill="#727171"/>
      </g>
    </g>
  </g>
</svg>
